<svg version="1.1" id="Layer_1" xmlns="http://www.w3.org/2000/svg" xmlns:xlink="http://www.w3.org/1999/xlink" x="0px" y="0px"
	 width="100%" viewBox="0 0 608 336" enable-background="new 0 0 608 336" xml:space="preserve">
<path fill="#000000" opacity="1.000000" stroke="none" 
	d="
M169.384506,145.159714 
	C170.551605,147.864380 172.367249,147.306763 174.100006,146.528519 
	C179.631027,144.044250 184.396378,140.434219 188.823792,136.339325 
	C190.593231,134.702759 190.487381,132.466461 190.913284,130.363831 
	C192.923294,120.440735 194.807449,110.490143 197.542526,100.724632 
	C197.925140,99.358467 198.755615,97.923698 198.063293,96.235664 
	C195.545486,94.346275 193.053741,96.868004 190.474426,96.488205 
	C188.178604,96.150162 185.356644,96.621483 185.064606,93.427322 
	C184.789047,90.413429 186.822968,88.623848 189.707977,88.771156 
	C199.280457,89.259933 203.200943,84.335808 204.987686,75.364975 
	C206.665802,66.939583 209.895493,58.789009 212.866379,50.672680 
	C214.004379,47.563721 215.552399,43.131691 219.692429,43.867069 
	C224.317505,44.688599 224.138824,49.257145 224.274658,53.204449 
	C224.597824,62.595615 220.782913,71.059135 218.436447,79.823204 
	C216.532959,86.932785 216.664658,87.580544 224.011047,87.567429 
	C230.672318,87.555542 237.322647,87.656685 243.918655,88.707390 
	C246.192535,89.069611 248.533051,89.325417 250.637863,91.739120 
	C246.111801,93.839264 241.503098,93.844757 237.043976,93.974159 
	C230.724396,94.157555 224.384216,93.963036 218.064819,93.670822 
	C215.171951,93.537056 213.977432,94.605713 213.195023,97.349281 
	C209.306427,110.984818 203.897003,123.996986 197.845062,136.849396 
	C193.417557,146.252014 193.529221,156.614578 195.798386,166.868515 
	C206.782379,161.055954 207.925385,151.368851 207.600235,141.134018 
	C207.438141,136.031738 209.387085,131.689041 211.992386,127.583557 
	C213.574661,125.090134 215.845627,123.635483 218.634888,126.021828 
	C221.225662,128.238327 219.977707,129.761749 218.055420,132.110245 
	C213.567047,137.593811 212.389069,144.163147 213.744812,151.564560 
	C218.143509,150.591782 220.683746,147.518768 223.765396,145.460510 
	C229.565720,141.586411 235.529099,137.906021 240.656097,133.092804 
	C241.755722,132.060455 243.028320,131.152969 243.434875,129.645187 
	C244.713318,124.903793 248.148346,123.465462 252.562881,123.711807 
	C257.149384,123.967728 260.902679,126.073746 261.741455,130.714127 
	C262.582153,135.365234 264.851990,135.054840 268.040802,133.680878 
	C271.964661,131.990204 276.326172,131.412872 279.652649,128.195724 
	C281.719330,126.196991 283.936859,128.917511 286.266113,129.172699 
	C287.095795,128.133057 287.858612,127.046173 288.753387,126.081711 
	C291.018768,123.639900 293.602295,122.009506 297.152802,123.070374 
	C301.030121,124.228889 302.219299,127.481590 302.310516,130.830383 
	C302.464935,136.499496 299.340515,141.920334 302.182922,148.495972 
	C296.665283,146.975800 295.738525,143.945816 295.717987,140.496185 
	C295.699585,137.405899 296.014465,134.313629 296.244415,130.077667 
	C291.168823,134.000000 288.929199,138.809494 286.117249,143.112442 
	C284.568176,145.482895 283.352661,148.081253 280.944489,149.754196 
	C277.377014,152.232498 274.524902,150.976257 273.839142,146.669678 
	C273.347137,143.580109 275.039886,140.833878 275.267151,137.292328 
	C270.371582,138.573547 265.663574,139.809357 260.953369,141.036621 
	C258.992432,141.547546 258.047089,143.116394 257.033051,144.664566 
	C255.756592,146.613419 254.570465,148.665817 253.025116,150.385803 
	C248.547485,155.369446 242.502670,154.416016 239.760712,148.394760 
	C239.219376,147.205978 239.124039,145.785156 237.325333,144.666046 
	C229.253174,149.018982 221.741364,154.661041 214.495392,160.685120 
	C213.311371,161.669464 213.759613,163.068832 213.948730,164.420441 
	C214.615387,169.184921 215.687958,173.903671 215.362656,178.782333 
	C215.071426,183.150085 213.548492,187.012054 210.202545,189.745178 
	C206.668900,192.631653 202.415573,193.864548 198.162018,191.406921 
	C194.140701,189.083496 190.847626,180.710571 192.280151,176.393326 
	C193.216721,173.570755 192.723343,171.449188 191.482849,168.883804 
	C188.975525,163.698593 188.414429,158.039444 188.706268,152.304565 
	C188.805313,150.358322 189.445175,148.272873 187.227081,146.604034 
	C183.073044,147.635468 179.962799,150.866562 176.166824,152.811630 
	C168.847977,156.561829 165.765961,155.323273 163.600937,147.302383 
	C163.338684,146.330795 163.105942,145.351974 161.804169,144.846725 
	C158.795013,145.415344 157.055191,148.030228 154.872040,149.977005 
	C152.760376,151.860062 150.846375,153.975876 148.163712,155.106873 
	C145.824387,156.093079 143.419022,157.159836 141.127075,155.201340 
	C138.962799,153.351944 137.927460,150.934174 138.601959,148.048401 
	C140.604187,139.482117 145.159576,132.292114 151.780624,126.766663 
	C157.094147,122.332382 163.449158,124.758400 165.399933,131.229279 
	C165.542114,131.700912 165.412659,132.548569 165.654678,132.652954 
	C171.711472,135.265137 169.024979,140.485687 169.384506,145.159714 
M202.376373,172.943085 
	C201.455292,174.690659 200.287125,176.357178 199.679947,178.207748 
	C199.021545,180.214493 196.856171,182.792740 199.613129,184.380661 
	C202.010605,185.761536 204.451920,183.981262 206.194504,182.199173 
	C210.602539,177.691147 210.074356,172.127121 209.316238,165.400620 
	C206.722702,168.158142 204.751907,170.253525 202.376373,172.943085 
M155.044220,134.644318 
	C151.911560,137.602783 148.520935,140.402466 147.927979,145.874756 
	C152.512985,143.458542 155.229050,140.147598 158.035370,136.952087 
	C158.743851,136.145325 158.938339,135.092865 158.272705,134.212845 
	C157.449875,133.125031 156.499008,133.938217 155.044220,134.644318 
M254.973099,129.087738 
	C250.143356,128.912827 250.332687,132.428116 249.847137,135.591309 
	C254.711838,136.769653 255.684875,135.648788 254.973099,129.087738 
M250.296021,142.599152 
	C249.517960,140.598999 247.868210,140.246704 246.054657,140.210220 
	C243.979263,143.930405 243.979263,143.930405 245.266006,147.384979 
	C248.028305,147.320206 249.015671,145.183472 250.296021,142.599152 
z"/>
<path fill="#000000" opacity="1.000000" stroke="none" 
	d="
M515.848755,61.009232 
	C517.382446,56.721775 518.480713,52.654217 520.336365,48.967896 
	C521.592285,46.473026 523.237427,42.968521 526.956726,44.148968 
	C530.683350,45.331734 530.744568,48.876869 531.086548,52.373955 
	C531.843994,60.118477 528.226624,66.847328 526.764038,74.060959 
	C526.169800,76.991745 525.346313,79.880211 524.532471,82.761200 
	C523.539490,86.276505 524.787659,87.667717 528.435669,87.634766 
	C535.584778,87.570183 542.748474,87.389252 549.853149,88.605034 
	C552.465881,89.052139 555.039429,89.429504 557.636169,91.792366 
	C552.526550,93.508179 547.832458,94.053146 543.059326,93.962555 
	C537.251221,93.852341 531.442749,93.659439 525.640381,93.379799 
	C522.623047,93.234375 520.987488,93.985710 519.962036,97.348984 
	C515.884827,110.721779 510.982239,123.757126 504.700317,136.344421 
	C500.000916,145.760818 500.576965,156.140137 502.504242,167.800446 
	C508.480377,161.529968 514.852173,157.833481 513.953430,148.607086 
	C513.270996,141.601242 514.163025,134.273972 518.456055,128.036926 
	C520.049561,125.721855 521.819397,123.494492 524.911560,125.728600 
	C527.167542,127.358536 528.414551,129.074081 525.393188,131.616348 
	C520.791138,135.488663 518.531677,145.906586 520.936035,151.840210 
	C532.753906,144.520996 543.803528,136.299866 555.020386,128.006805 
	C554.714966,132.540802 553.355591,136.292450 550.017761,139.241653 
	C542.497070,145.886734 533.761169,150.839432 525.732422,156.777740 
	C521.950989,159.574615 519.681885,162.271561 521.087769,167.585419 
	C522.421082,172.624619 523.407471,177.996780 521.178711,183.282822 
	C518.257019,190.212204 512.899231,193.714752 506.947754,192.319824 
	C502.471039,191.270569 497.623993,182.868820 498.901764,177.141113 
	C499.691315,173.601898 499.178253,170.765686 497.700592,167.637970 
	C495.595367,163.181946 495.460663,158.323303 495.599731,153.452118 
	C495.664062,151.198776 496.267761,148.745010 494.081268,146.628311 
	C489.906555,147.661972 486.815460,150.916183 482.979797,152.768646 
	C475.014496,156.615494 472.241943,155.441666 470.477478,146.950775 
	C470.317749,146.182114 469.827484,145.482147 469.498993,144.768250 
	C466.547699,144.505493 465.235382,146.699493 463.573792,148.190994 
	C461.098267,150.413086 458.878693,152.928726 455.915039,154.565506 
	C453.404541,155.951996 450.707214,157.653625 448.075958,155.430466 
	C445.607361,153.344788 444.017151,150.559738 445.173706,147.002518 
	C445.420624,146.242935 445.415955,145.401520 445.569092,144.295273 
	C442.908478,143.734909 441.370361,145.138260 439.930054,146.747025 
	C437.774628,149.154602 435.054016,150.753647 432.148987,152.017059 
	C427.969727,153.834625 423.616913,154.435699 419.861359,151.352356 
	C416.046906,148.220703 415.916870,143.582123 417.047699,139.347702 
	C419.030426,131.923355 423.076111,125.608238 429.602448,121.270439 
	C432.626373,119.260544 436.121429,118.168663 439.172363,121.161537 
	C442.334198,124.263161 441.840851,127.643867 439.203552,130.989960 
	C435.488495,135.703430 431.257751,139.650620 424.907562,139.945999 
	C422.238647,140.070145 421.824738,141.821976 421.730286,143.550934 
	C421.597351,145.984787 423.746582,146.585983 425.551819,146.459305 
	C427.665558,146.310974 429.816071,145.698822 431.804199,144.916031 
	C441.077484,141.264786 450.149353,137.704727 456.314514,128.791153 
	C461.187500,121.745735 467.882996,123.889488 472.348846,130.866333 
	C475.343323,135.544495 476.374084,139.693253 476.295135,144.822571 
	C476.255005,147.431564 478.395844,147.509506 480.321899,146.643951 
	C486.310120,143.952850 491.574310,140.185242 496.224457,135.567307 
	C498.225983,133.579651 497.485352,130.838120 497.972412,128.445816 
	C499.893829,119.007866 501.683807,109.545677 504.435272,100.293854 
	C504.832733,98.957375 505.472809,97.458305 504.684662,95.680321 
	C501.785736,94.965607 498.993774,96.820015 496.013763,96.496147 
	C493.825897,96.258377 491.994019,95.971390 491.787048,93.330589 
	C491.599976,90.944115 492.882416,89.508560 495.062653,88.988808 
	C497.161255,88.488518 499.355316,87.853325 501.456238,88.001755 
	C507.005585,88.393837 508.899384,85.269798 510.081543,80.534256 
	C511.691620,74.084755 513.826172,67.766182 515.848755,61.009232 
M505.856293,179.419235 
	C505.473633,181.149490 504.475586,183.203003 506.454773,184.343704 
	C508.366760,185.445679 510.312500,184.233337 511.959076,183.133957 
	C516.050354,180.402344 517.658203,173.558105 515.841614,167.054779 
	C511.638611,169.008636 509.156067,171.987000 505.856293,179.419235 
M454.822784,143.570648 
	C454.639557,144.234222 454.571320,145.130264 455.412354,145.078201 
	C458.569458,144.882751 465.030914,137.450363 465.016785,133.659821 
	C459.423920,134.556442 457.361206,138.911194 454.822784,143.570648 
z"/>
<path fill="#000000" opacity="1.000000" stroke="none" 
	d="
M141.343658,118.157974 
	C137.590424,133.565674 135.037842,148.862122 129.595398,163.402802 
	C129.070389,164.805481 128.635971,166.264282 127.928490,167.572052 
	C126.189110,170.787323 124.571213,174.724503 120.080795,174.082504 
	C115.670509,173.451965 113.214020,169.926590 112.465637,165.795517 
	C111.016876,157.798447 110.272377,149.759537 111.301407,141.558105 
	C112.138245,134.888474 112.915543,128.111084 111.602074,120.763046 
	C108.695671,122.407898 107.419159,124.703293 106.156929,126.962234 
	C98.260742,141.093613 92.444191,156.200714 85.608620,170.830154 
	C84.199860,173.845154 82.930763,176.968857 81.152481,179.758957 
	C77.105751,186.108200 70.992203,186.265289 66.620529,180.125671 
	C64.085907,176.566025 62.811214,172.520020 62.599197,168.009537 
	C61.743206,149.799194 65.842232,132.344879 70.403519,114.960350 
	C72.344246,107.563614 74.625031,100.256378 76.728798,92.902031 
	C77.646683,89.693321 79.461174,87.816429 82.941559,89.179375 
	C86.556976,90.595207 84.773575,93.155945 83.961220,95.440582 
	C75.967484,117.921661 70.040123,140.873856 68.550758,164.786163 
	C68.346954,168.058304 69.054230,171.393417 69.413239,174.691360 
	C69.560219,176.041595 69.996094,177.485352 71.378593,177.937775 
	C73.157654,178.519989 74.212898,177.073410 74.919060,175.809525 
	C77.989761,170.313599 81.139557,164.844406 83.846626,159.168060 
	C86.174461,154.286896 87.924133,149.097778 89.862923,144.081253 
	C93.202499,135.440323 96.639107,126.502556 102.405556,119.025475 
	C104.694130,116.057991 107.540230,112.831726 112.482918,114.381683 
	C117.289581,115.888969 118.364700,119.536140 118.296509,123.714157 
	C118.103661,135.529083 117.677887,147.340179 117.347160,159.152878 
	C117.272240,161.828995 117.441513,164.440063 119.526596,166.800278 
	C124.050987,161.529160 124.802261,154.831253 126.424408,148.772217 
	C130.713593,132.751236 133.533722,116.328819 138.034012,100.375191 
	C141.311417,88.756737 143.490967,76.686646 149.265442,65.851631 
	C151.730927,61.225449 153.714523,60.878857 158.250702,64.266457 
	C150.012253,81.243919 146.656525,99.794037 141.343658,118.157974 
z"/>
<path fill="#000000" opacity="1.000000" stroke="none" 
	d="
M420.396484,76.199005 
	C413.752838,77.064369 407.542267,78.026237 401.302765,78.732010 
	C397.180969,79.198235 394.947754,81.297340 393.393524,85.150284 
	C383.298706,110.175537 376.119171,136.141739 368.260834,161.891754 
	C366.321930,168.245056 364.246918,174.560837 362.047302,180.828171 
	C361.370026,182.757950 361.328003,186.176788 357.720245,184.678024 
	C354.805908,183.467316 354.067810,181.131012 355.382446,178.095093 
	C359.236328,169.195358 361.461914,159.794693 363.108551,150.305450 
	C365.409882,137.043213 367.262177,123.736671 363.450195,110.343849 
	C360.492096,99.951134 355.733490,95.597015 345.970093,94.714127 
	C342.118164,94.365799 339.360962,96.622032 336.256836,98.089294 
	C333.912445,99.197441 331.426819,100.315720 329.289276,98.295120 
	C327.107147,96.232338 326.548889,93.261047 329.317413,91.422249 
	C332.876160,89.058578 336.610046,86.641632 341.073425,86.237923 
	C350.405121,85.393898 359.316467,82.755386 368.184998,79.964806 
	C370.803223,79.140938 373.275452,78.568108 375.947662,80.240822 
	C376.402527,78.242645 377.093689,76.998039 379.453491,76.800705 
	C385.613007,76.285690 391.345673,73.778061 398.057770,75.423996 
	C401.126007,76.176399 405.942596,74.682182 409.798676,73.512672 
	C421.624237,69.926109 433.715393,68.731560 446.022766,68.886841 
	C450.414642,68.942253 453.484039,70.528259 453.215973,75.086540 
	C452.986694,78.985672 449.979828,80.633156 446.118500,81.377289 
	C438.132782,82.916245 430.203094,83.287468 421.791626,82.018028 
	C423.729858,79.381561 427.191010,79.802231 429.191681,77.200127 
	C426.292084,75.290131 423.453613,76.430435 420.396484,76.199005 
M375.518738,115.103851 
	C379.004791,104.280762 382.490845,93.457680 386.194153,81.960045 
	C374.655090,84.318214 364.360504,87.339783 353.263672,91.838249 
	C369.710052,100.691368 369.983734,115.410362 370.186157,131.490021 
	C372.195068,125.314827 373.732635,120.588539 375.518738,115.103851 
z"/>
<path fill="#000000" opacity="1.000000" stroke="none" 
	d="
M389.616577,136.832840 
	C390.116577,134.646790 390.423798,132.828659 391.027191,131.114777 
	C391.545410,129.642838 391.457397,127.375679 393.564728,127.267311 
	C395.624664,127.161377 396.660980,128.909729 397.376801,130.692261 
	C397.619415,131.296387 397.920471,131.877029 398.450958,133.020599 
	C405.524292,127.614304 410.983521,117.711411 423.392670,124.274925 
	C408.803864,129.942474 402.200317,141.478241 396.316040,153.653687 
	C395.412048,155.524139 394.150299,157.298752 391.809937,156.820786 
	C389.402069,156.328995 388.439362,154.126511 388.001892,151.995728 
	C386.966187,146.951004 388.502777,142.109726 389.616577,136.832840 
z"/>
<path fill="#000000" opacity="1.000000" stroke="none" 
	d="
M135.376526,225.779495 
	C134.322098,228.233582 132.843048,230.111099 130.430893,228.923187 
	C127.899017,227.676270 128.952316,224.895126 128.945496,222.707184 
	C128.940781,221.195099 129.924194,220.124023 131.421799,220.253143 
	C134.477493,220.516632 135.368332,222.707825 135.376526,225.779495 
z"/>
<path fill="#000000" opacity="1.000000" stroke="none" 
	d="
M192.763290,228.302277 
	C192.355316,227.500656 192.058975,227.015060 192.089478,226.550903 
	C192.235321,224.330795 190.461868,221.130066 194.568542,220.748947 
	C198.436264,220.390015 198.188065,223.366928 198.181671,225.847260 
	C198.171509,229.796310 195.706421,229.478226 192.763290,228.302277 
z"/>
<path fill="#000000" opacity="1.000000" stroke="none" 
	d="
M145.051117,227.527985 
	C143.509506,229.808838 141.835526,229.902832 140.425644,228.104309 
	C139.031143,226.325394 138.803452,224.089035 139.641174,221.985916 
	C140.368362,220.160278 142.276184,220.460922 143.533295,220.896255 
	C146.949539,222.079254 145.241531,224.912003 145.051117,227.527985 
z"/>
<path fill="#000000" opacity="1.000000" stroke="none" 
	d="
M370.680023,223.335571 
	C371.021820,220.300842 373.092804,220.487442 374.840515,220.500168 
	C376.205902,220.510117 376.951843,221.647659 376.732147,222.914246 
	C376.382935,224.927612 377.421814,227.450302 375.178070,228.833511 
	C372.557892,230.448792 370.790588,228.428665 370.680023,223.335571 
z"/>
<path fill="#000000" opacity="1.000000" stroke="none" 
	d="
M330.625671,224.038940 
	C330.339508,226.376358 330.242950,228.466034 327.806549,229.080353 
	C326.618103,229.380020 325.321045,229.258865 325.013916,227.861633 
	C324.526459,225.643890 323.616058,222.775803 325.213654,221.258377 
	C328.003723,218.608322 329.836700,220.526917 330.625671,224.038940 
z"/>
<path fill="#000000" opacity="1.000000" stroke="none" 
	d="
M360.223206,224.963364 
	C360.642700,221.759323 361.894470,219.941895 365.614166,220.624237 
	C364.918640,223.444992 368.264435,226.916733 364.530151,228.906891 
	C362.123383,230.189575 360.869965,227.566681 360.223206,224.963364 
z"/>
<path fill="#000000" opacity="1.000000" stroke="none" 
	d="
M238.659760,227.916580 
	C238.600525,225.637482 238.600525,223.660965 238.600525,221.696381 
	C239.962616,220.240021 241.488541,220.250412 243.259186,220.894699 
	C244.845154,223.598251 241.219864,226.219528 243.963287,228.799850 
	C241.478973,229.391434 239.900406,230.049011 238.659760,227.916580 
z"/>
<path fill="#000000" opacity="1.000000" stroke="none" 
	d="
M124.250778,227.448761 
	C122.690331,229.516022 120.813622,229.571060 119.524498,228.096344 
	C118.175316,226.552994 118.455269,224.296707 119.010895,222.410614 
	C119.730644,219.967453 121.794174,220.764313 123.595276,220.896011 
	C124.964043,222.847549 124.561615,224.969757 124.250778,227.448761 
z"/>
<path fill="#000000" opacity="1.000000" stroke="none" 
	d="
M431.009430,221.390686 
	C433.163239,219.775620 435.094666,219.947495 437.294800,221.324631 
	C436.499390,224.114761 436.744446,227.157990 433.905975,229.198288 
	C430.991455,227.273224 431.657593,224.179642 431.009430,221.390686 
z"/>
<path fill="#000000" opacity="1.000000" stroke="none" 
	d="
M504.529907,226.855713 
	C504.550598,226.313461 504.533661,226.144394 504.569611,225.987427 
	C505.011444,224.059006 503.637421,221.567261 506.247253,220.322144 
	C507.046997,219.940613 508.015106,220.171494 508.431244,220.911713 
	C509.714966,223.195282 509.619202,226.006287 508.686066,227.991623 
	C507.507660,230.498840 505.397949,230.452850 504.529907,226.855713 
z"/>
<path fill="#000000" opacity="1.000000" stroke="none" 
	d="
M164.228088,227.583054 
	C163.259354,229.806091 161.850937,229.624023 160.487091,228.663681 
	C158.844116,227.506760 158.259018,225.725601 158.708481,223.832016 
	C159.268280,221.473663 160.771042,220.151855 163.758179,220.617050 
	C163.933624,222.787567 164.112976,225.006256 164.228088,227.583054 
z"/>
<path fill="#000000" opacity="1.000000" stroke="none" 
	d="
M450.751648,227.977051 
	C451.148346,225.250427 448.606018,221.156601 452.918152,220.901978 
	C457.907410,220.607361 454.394196,225.198334 455.493805,227.312180 
	C455.670380,227.651581 455.382599,228.232544 455.304169,228.735870 
	C453.678101,229.320969 452.147583,230.001495 450.751648,227.977051 
z"/>
<path fill="#000000" opacity="1.000000" stroke="none" 
	d="
M404.911621,222.267670 
	C406.641541,220.456863 408.646729,220.228470 409.732269,221.889587 
	C410.886047,223.655121 410.705048,226.051056 409.801422,228.061066 
	C409.247345,229.293564 407.866791,229.037109 406.719208,228.966583 
	C405.554291,228.895004 404.881531,228.228897 404.812012,227.121597 
	C404.719818,225.653992 404.781006,224.176773 404.911621,222.267670 
z"/>
<path fill="#000000" opacity="1.000000" stroke="none" 
	d="
M305.930481,224.356659 
	C305.045135,226.123215 307.098724,228.678787 304.130920,229.185547 
	C302.813354,229.410553 301.613220,228.837479 301.630341,227.455933 
	C301.659576,225.091309 300.087372,221.900391 302.610168,220.558151 
	C305.573853,218.981339 306.159882,221.503708 305.930481,224.356659 
z"/>
<path fill="#000000" opacity="1.000000" stroke="none" 
	d="
M219.433090,225.346695 
	C217.844467,220.415390 220.550491,220.341232 223.960846,220.689072 
	C225.258347,223.904327 223.602173,226.327759 222.600113,228.830658 
	C219.968109,228.787552 219.900238,227.133545 219.433090,225.346695 
z"/>
<path fill="#000000" opacity="1.000000" stroke="none" 
	d="
M232.405945,229.064514 
	C229.513519,227.831314 228.229965,222.565643 230.007782,220.716583 
	C230.653503,220.045029 231.450165,219.942902 232.267197,220.193863 
	C233.297089,220.510193 234.117615,221.213135 233.800339,222.353775 
	C233.195984,224.526459 234.182571,226.941223 232.405945,229.064514 
z"/>
<path fill="#000000" opacity="1.000000" stroke="none" 
	d="
M339.459808,223.389282 
	C339.398773,223.912766 339.434479,224.109299 339.355896,224.233521 
	C338.419586,225.713226 340.092499,228.032486 337.922516,229.030212 
	C337.007263,229.451050 335.856781,229.157364 335.403168,228.112228 
	C334.452454,225.921814 334.576202,223.619873 335.280823,221.399994 
	C335.603241,220.384293 336.587250,219.972610 337.676697,220.136642 
	C339.377106,220.392670 339.699036,221.556000 339.459808,223.389282 
z"/>
<path fill="#000000" opacity="1.000000" stroke="none" 
	d="
M209.587646,227.539490 
	C209.452332,226.839737 209.313583,226.474731 209.414261,226.196320 
	C210.148880,224.164917 208.230850,220.240570 211.920013,220.434708 
	C215.784531,220.638107 213.505417,224.164307 213.611526,226.304367 
	C213.817368,230.455338 212.020966,229.857544 209.587646,227.539490 
z"/>
<path fill="#000000" opacity="1.000000" stroke="none" 
	d="
M479.028992,228.587616 
	C478.778320,226.500214 478.676819,224.697754 478.676605,222.895309 
	C478.676453,221.654526 479.010162,220.553421 480.588745,220.596222 
	C481.873138,220.631042 482.683502,221.245956 483.128571,222.518600 
	C484.514557,226.481842 483.053558,228.907593 479.028992,228.587616 
z"/>
<path fill="#000000" opacity="1.000000" stroke="none" 
	d="
M295.706024,223.604919 
	C293.552399,225.773499 296.907013,226.838150 296.289642,228.799393 
	C293.355286,229.781860 292.064423,228.132309 291.530823,225.621063 
	C291.029175,223.260345 291.828217,221.381714 294.240997,220.452072 
	C295.236755,220.068436 296.285156,219.986923 296.901581,220.967178 
	C297.593933,222.068192 296.732605,222.777634 295.706024,223.604919 
z"/>
<path fill="#000000" opacity="1.000000" stroke="none" 
	d="
M445.363464,220.701233 
	C446.768677,223.531815 445.453522,226.114182 445.929535,228.656296 
	C443.378906,229.825058 441.305603,229.505783 441.645050,226.694595 
	C441.916931,224.442719 439.283661,219.901825 445.363464,220.701233 
z"/>
<path fill="#000000" opacity="1.000000" stroke="none" 
	d="
M173.186493,222.019684 
	C173.095047,224.507584 172.957657,226.600662 172.823685,228.641708 
	C170.909515,229.533722 169.180420,229.634888 168.806717,227.426804 
	C168.435593,225.233902 167.920349,222.692444 169.605301,220.828491 
	C170.817886,219.487122 172.277420,219.924576 173.186493,222.019684 
z"/>
<path fill="#000000" opacity="1.000000" stroke="none" 
	d="
M423.449463,220.203522 
	C429.351501,221.838440 423.532349,226.076004 426.309784,228.092270 
	C424.497040,229.467163 422.757446,229.772659 422.264435,228.439545 
	C421.266327,225.740768 420.473022,222.742416 423.449463,220.203522 
z"/>
<path fill="#000000" opacity="1.000000" stroke="none" 
	d="
M270.230408,222.717606 
	C270.882263,225.828140 273.315125,229.510574 267.082245,229.077316 
	C266.276520,227.151276 267.432495,225.147156 266.553192,223.264709 
	C266.056885,222.202148 266.749298,220.959671 268.131683,220.593765 
	C269.662384,220.188614 270.329163,220.875046 270.230408,222.717606 
z"/>
<path fill="#000000" opacity="1.000000" stroke="none" 
	d="
M345.880219,220.954407 
	C347.724915,223.416534 346.552979,226.295364 348.357178,228.318176 
	C346.119293,230.067795 344.325592,229.750107 344.045807,227.777695 
	C343.716614,225.456787 341.122833,222.212662 345.880219,220.954407 
z"/>
<path fill="#000000" opacity="1.000000" stroke="none" 
	d="
M249.236633,221.249451 
	C250.958527,220.863358 252.452179,220.506622 253.920288,221.664841 
	C253.651642,224.188644 253.206024,226.675003 251.307831,229.141586 
	C249.406525,226.655197 249.067413,224.122589 249.236633,221.249451 
z"/>
<path fill="#000000" opacity="1.000000" stroke="none" 
	d="
M284.402069,224.835510 
	C284.689758,223.122467 283.861572,221.426666 286.175629,220.189545 
	C288.928375,223.173767 288.378510,225.970566 286.302917,228.996750 
	C283.994080,228.243576 284.380280,226.625748 284.402069,224.835510 
z"/>
<path fill="#000000" opacity="1.000000" stroke="none" 
	d="
M151.379593,221.035431 
	C152.380386,223.613586 153.036148,226.090897 153.691376,228.566086 
	C151.806625,229.619080 150.145691,229.542755 149.620117,227.432571 
	C149.056335,225.168915 147.978394,222.522659 151.379593,221.035431 
z"/>
<path fill="#000000" opacity="1.000000" stroke="none" 
	d="
M462.242950,225.468781 
	C461.769348,223.920868 461.440125,222.697388 461.102875,221.444000 
	C462.953430,220.706650 464.486084,220.379761 466.404175,221.219971 
	C465.867493,223.841629 465.333344,226.450882 464.803772,229.037750 
	C461.886688,229.037796 463.051849,226.846558 462.242950,225.468781 
z"/>
<path fill="#000000" opacity="1.000000" stroke="none" 
	d="
M353.544983,228.633698 
	C351.902008,225.720840 352.339996,223.158447 354.255066,219.406830 
	C355.993225,223.428650 357.706787,226.148346 353.544983,228.633698 
z"/>
<path fill="#000000" opacity="1.000000" stroke="none" 
	d="
M278.509949,225.406586 
	C278.769806,226.856674 280.851227,228.008652 278.684906,228.991699 
	C277.303650,229.618530 276.015686,229.003113 275.576965,227.454514 
	C274.910614,225.102295 274.573547,222.743332 276.338226,220.684006 
	C279.068176,221.597336 278.027161,223.603958 278.509949,225.406586 
z"/>
<path fill="#000000" opacity="1.000000" stroke="none" 
	d="
M382.986206,220.692657 
	C384.326050,220.694275 385.639648,220.712784 385.400513,222.029312 
	C384.985687,224.313293 384.180511,226.526382 383.182434,230.015945 
	C381.500946,226.104401 379.161835,223.611191 382.986206,220.692657 
z"/>
<path fill="#000000" opacity="1.000000" stroke="none" 
	d="
M499.171692,223.885498 
	C498.105042,225.534546 499.111755,227.561523 497.231750,228.867767 
	C494.744965,226.894791 496.559753,223.809067 494.841339,221.802582 
	C499.516876,220.126953 499.516876,220.126953 499.171692,223.885498 
z"/>
<path fill="#000000" opacity="1.000000" stroke="none" 
	d="
M185.036469,221.874359 
	C186.264099,220.156219 187.290176,220.574646 187.637589,221.977676 
	C188.214844,224.308884 188.716415,226.766403 186.626846,229.032272 
	C183.876373,227.115692 185.083618,224.506790 185.036469,221.874359 
z"/>
<path fill="#000000" opacity="1.000000" stroke="none" 
	d="
M487.108276,224.154968 
	C487.297241,222.499359 487.139618,221.038986 489.191162,220.553543 
	C491.248352,223.106598 490.366882,225.821152 489.683838,228.789490 
	C486.985474,228.222931 487.384247,226.185196 487.108276,224.154968 
z"/>
<path fill="#000000" opacity="1.000000" stroke="none" 
	d="
M397.322083,225.312805 
	C397.431946,223.540024 397.224762,222.003555 398.357208,220.801453 
	C401.043030,223.061111 401.171326,224.846588 398.941193,228.816254 
	C397.099915,228.413086 397.713501,226.776169 397.322083,225.312805 
z"/>
</svg>